<mxfile host="65bd71144e" scale="20" border="20">
    <diagram id="CX3G9Xh7dB3GCvSDx5av" name="第 1 页">
        <mxGraphModel dx="967" dy="571" grid="0" gridSize="10" guides="1" tooltips="1" connect="1" arrows="1" fold="1" page="1" pageScale="1" pageWidth="1169" pageHeight="827" background="#ffffff" math="0" shadow="0">
            <root>
                <mxCell id="0"/>
                <mxCell id="1" parent="0"/>
                <mxCell id="142" value="&lt;font style=&quot;font-size: 22px;&quot; color=&quot;#000000&quot;&gt;├─api&lt;br&gt;├─assets&lt;br&gt;├─components&lt;br&gt;├─router&lt;br&gt;├─store&lt;br&gt;├─styles&lt;br&gt;├─utils&lt;br&gt;└─views&lt;br&gt;&amp;nbsp; &amp;nbsp; ├─404&lt;br&gt;&amp;nbsp; &amp;nbsp; ├─ForgetPassword&lt;br&gt;&amp;nbsp; &amp;nbsp; ├─Login&lt;br&gt;&amp;nbsp; &amp;nbsp; ├─Personal&lt;br&gt;&amp;nbsp; &amp;nbsp; ├─Register&lt;br&gt;&amp;nbsp; &amp;nbsp; ├─StudentDashboard&lt;br&gt;&amp;nbsp; &amp;nbsp; └─TeacherDashboard&lt;/font&gt;" style="text;whiteSpace=wrap;html=1;strokeColor=none;rounded=0;" parent="1" vertex="1">
                    <mxGeometry x="129" y="361" width="333" height="564" as="geometry"/>
                </mxCell>
            </root>
        </mxGraphModel>
    </diagram>
</mxfile>